<svg width="85" height="85" viewBox="0 0 85 85" fill="none" xmlns="http://www.w3.org/2000/svg">
<g filter="url(#filter0_d_12_186)">
<circle cx="42.5" cy="32.5" r="22.5" fill="white"/>
</g>
<path d="M48 23H38C35.2386 23 33 25.2386 33 28V38C33 40.7614 35.2386 43 38 43H48C50.7614 43 53 40.7614 53 38V28C53 25.2386 50.7614 23 48 23Z" stroke="#59BE29" stroke-width="2" stroke-linecap="round" stroke-linejoin="round"/>
<path d="M46.9997 32.3698C47.1231 33.2021 46.981 34.052 46.5935 34.7988C46.206 35.5456 45.5929 36.1512 44.8413 36.5295C44.0898 36.9077 43.2382 37.0394 42.4075 36.9057C41.5768 36.7721 40.8095 36.3799 40.2145 35.785C39.6196 35.1901 39.2274 34.4227 39.0938 33.592C38.9601 32.7614 39.0918 31.9097 39.47 31.1582C39.8483 30.4067 40.4539 29.7936 41.2007 29.4061C41.9475 29.0186 42.7975 28.8764 43.6297 28.9998C44.4786 29.1257 45.2646 29.5213 45.8714 30.1281C46.4782 30.735 46.8738 31.5209 46.9997 32.3698Z" stroke="#59BE29" stroke-width="2" stroke-linecap="round" stroke-linejoin="round"/>
<path d="M48.5 27.5H48.51" stroke="#59BE29" stroke-width="2" stroke-linecap="round" stroke-linejoin="round"/>
<defs>
<filter id="filter0_d_12_186" x="0" y="0" width="85" height="85" filterUnits="userSpaceOnUse" color-interpolation-filters="sRGB">
<feFlood flood-opacity="0" result="BackgroundImageFix"/>
<feColorMatrix in="SourceAlpha" type="matrix" values="0 0 0 0 0 0 0 0 0 0 0 0 0 0 0 0 0 0 127 0" result="hardAlpha"/>
<feOffset dy="10"/>
<feGaussianBlur stdDeviation="10"/>
<feComposite in2="hardAlpha" operator="out"/>
<feColorMatrix type="matrix" values="0 0 0 0 0.0853777 0 0 0 0 0.204167 0 0 0 0 0.0289236 0 0 0 0.05 0"/>
<feBlend mode="normal" in2="BackgroundImageFix" result="effect1_dropShadow_12_186"/>
<feBlend mode="normal" in="SourceGraphic" in2="effect1_dropShadow_12_186" result="shape"/>
</filter>
</defs>
</svg>
